<svg width="307" height="259" viewBox="0 0 307 259" fill="none" xmlns="http://www.w3.org/2000/svg">
	<path d="M169.164 259C240.607 259 298.523 201.021 298.523 129.5C298.523 57.9791 240.607 0 169.164 0C97.7211 0 39.8052 57.9791 39.8052 129.5C39.8052 201.021 97.7211 259 169.164 259Z" fill="#F5F7F9"/>
	<path d="M130.301 96.5768L137.54 90.1748H130.156L130.301 96.5768Z" fill="#BAC6D8"/>
	<path d="M169.067 66.2578H133.042C127.53 66.2578 123.061 70.7314 123.061 76.2498V80.9075C123.061 86.4259 127.53 90.8995 133.042 90.8995H169.067C174.579 90.8995 179.048 86.4259 179.048 80.9075V76.2498C179.048 70.7314 174.579 66.2578 169.067 66.2578Z" fill="#BAC6D8"/>
	<path d="M143.573 80.7528C144.773 80.7528 145.745 79.7794 145.745 78.5786C145.745 77.3778 144.773 76.4043 143.573 76.4043C142.374 76.4043 141.401 77.3778 141.401 78.5786C141.401 79.7794 142.374 80.7528 143.573 80.7528Z" fill="#F5F7F9"/>
	<path d="M151.054 80.7528C152.254 80.7528 153.226 79.7794 153.226 78.5786C153.226 77.3778 152.254 76.4043 151.054 76.4043C149.855 76.4043 148.882 77.3778 148.882 78.5786C148.882 79.7794 149.855 80.7528 151.054 80.7528Z" fill="#F5F7F9"/>
	<path d="M158.535 80.7528C159.735 80.7528 160.707 79.7794 160.707 78.5786C160.707 77.3778 159.735 76.4043 158.535 76.4043C157.336 76.4043 156.363 77.3778 156.363 78.5786C156.363 79.7794 157.336 80.7528 158.535 80.7528Z" fill="#F5F7F9"/>
	<path d="M262.253 215.417V214.933L261.095 213.484L258.416 210.227L255.569 206.778C255.569 206.778 252.827 204.879 252.122 204.55C249.555 203.361 247.026 202.453 244.004 202.453C242.146 202.453 235.201 202.733 235.187 203.903C235.187 205.637 244.912 212.204 252.045 215.392C255.178 215.417 262.253 215.417 262.253 215.417Z" fill="#303030"/>
	<path d="M260.781 215.417C250.882 207.792 230.674 166.206 235.857 150.792C246.891 156.421 258.995 175.83 264.705 192.219C265.012 193.285 265.259 194.368 265.443 195.462L267.76 206.091L268.32 215.431L260.781 215.417Z" fill="#BAC6D8"/>
	<path d="M267.538 215.416C264.198 212.701 263.132 204.661 263.103 201.66C263.05 196.061 263.909 191.934 268.692 185.774C273.475 179.613 272.201 169.394 278.552 162.499C284.904 155.605 289.113 153.682 296.652 153.682C304.19 153.682 306.584 165.916 306.546 168.993C306.459 181.411 298.645 183.17 293.876 189.093C290.416 193.393 290.145 196.911 289.098 198.921C283.48 209.754 278.914 213.827 275.536 215.416" fill="#EBEEF3"/>
	<path d="M269.382 214.518C269.478 193.341 291.772 161.534 296.535 156.765" stroke="#99ABC5" stroke-width="0.4" stroke-linecap="round" stroke-linejoin="round"/>
	<path d="M270.584 204.893C268.118 202.202 265.873 194.572 266.211 192.591" stroke="#99ABC5" stroke-width="0.4" stroke-linecap="round" stroke-linejoin="round"/>
	<path d="M264.266 213.59C260.772 207.391 244.193 177.164 238.01 154.899" stroke="#99ABC5" stroke-width="0.4" stroke-linecap="round" stroke-linejoin="round"/>
	<path d="M275.555 215.417H285.941L277.254 247.789H254.024L245.477 215.417H275.555Z" fill="#303030"/>
	<path d="M238.584 204.559C243.647 204.907 250.018 205.139 254.512 208.207" stroke="#99ABC5" stroke-width="0.4" stroke-linecap="round" stroke-linejoin="round"/>
	<path d="M106.342 200.505H13.0088V247.899H106.342V200.505Z" fill="#BAC6D8"/>
	<path d="M152.324 178.293C152.729 180.709 159.612 235.94 160.727 236.853C161.841 237.766 173.681 239.791 174.694 238.274C174.897 235.858 175.177 197.34 175.804 193.895" fill="#303030"/>
	<path d="M19.1624 166.77C14.3891 164.417 24.3412 211.062 50.5343 211.062C76.7274 211.062 120.817 171.119 127.955 171.119C143.714 171.119 181.017 202.09 183.942 202.09C186.181 199.848 190.66 195.925 190.66 194.359C190.66 192.794 154.945 133.963 128.221 133.963C117.858 133.977 29.9398 172.1 19.1624 166.77Z" fill="#2E3C51"/>
	<path d="M33.9024 167.563C39.1391 166.374 45.6547 163.296 51.4223 160.151C35.7316 165.287 22.874 168.606 19.1624 166.77C16.6334 165.524 18.2357 178.009 24.1819 190.035C23.1056 187.711 21.5708 170.384 33.9024 167.563Z" fill="#303030"/>
	<path d="M45.447 85.7299C49.5736 85.8411 71.0561 85.2081 76.9444 90.8226C81.3123 94.9875 94.8939 130.805 96.9886 143.382C87.8666 148.025 22.0726 179.562 1.70985 165.695C1.26099 154.92 3.35084 112.087 16.667 89.6243C21.5369 86.3774 41.4797 85.6285 45.447 85.7299Z" fill="#99ABC5"/>
	<path d="M53.8163 75.4819H41.2676V88.9817C41.2676 92.3639 53.8163 92.3349 53.8163 88.9817V75.4819Z" fill="#EBEEF3"/>
	<path d="M41.2676 83.6328C41.2676 82.1349 45.4135 78.371 47.9763 78.5063C48.0391 76.8394 42.1219 74.4429 42.1219 74.4429L41.2676 76.7476V83.6328Z" fill="#303030"/>
	<path d="M66.9585 75.4815C67.2402 74.1748 67.3826 72.8418 67.3832 71.505C67.3832 61.542 59.6078 53.4634 50.008 53.4634C40.4082 53.4634 32.6328 61.542 32.6328 71.505C32.6334 72.8418 32.7758 74.1748 33.0575 75.4815H66.9585Z" fill="#303030"/>
	<path d="M62.3784 63.3203C60.25 62.9965 58.1263 61.3199 56.6446 60.2231C48.1983 66.4174 42.7879 66.4995 42.2039 66.4995C41.6199 66.4995 39.2405 69.9204 38.1449 70.3069L38.0483 70.2489C38.3741 72.0489 39.0702 73.7614 40.0925 75.2775C41.1148 76.7937 42.441 78.0804 43.9867 79.0559C45.5325 80.0315 47.264 80.6745 49.0713 80.9441C50.8786 81.2137 52.7222 81.1041 54.4849 80.6222C56.2476 80.1402 57.8909 79.2965 59.3104 78.1447C60.7299 76.9928 61.8946 75.558 62.7304 73.9313C63.5662 72.3046 64.0549 70.5217 64.1655 68.6958C64.2761 66.8699 64.0061 65.0409 63.3727 63.3251C63.0423 63.3645 62.7084 63.3629 62.3784 63.3203Z" fill="#EBEEF3"/>
	<path d="M40.5969 55.7108C43.4277 55.7108 45.7226 53.4134 45.7226 50.5795C45.7226 47.7456 43.4277 45.4482 40.5969 45.4482C37.766 45.4482 35.4712 47.7456 35.4712 50.5795C35.4712 53.4134 37.766 55.7108 40.5969 55.7108Z" fill="#303030"/>
	<path d="M42.8796 66.2246C42.3257 66.2509 41.8032 66.4896 41.4205 66.8913C41.0377 67.293 40.8242 67.8268 40.8242 68.382C40.8242 68.9371 41.0377 69.4709 41.4205 69.8726C41.8032 70.2743 42.3257 70.5131 42.8796 70.5393" stroke="#303030" stroke-miterlimit="10" stroke-linecap="round"/>
	<path d="M59.3086 66.4995C59.9409 67.3451 61.5674 68.8284 59.3086 70.3987" stroke="#303030" stroke-miterlimit="10" stroke-linecap="round"/>
	<path d="M52.46 71.5293C52.46 72.1622 52.7302 73.6746 54.0865 74.0659" stroke="#303030" stroke-miterlimit="10" stroke-linecap="round"/>
	<path d="M76.4907 123.067L89.9034 119.613C91.192 121.806 97.4664 143.361 97.4664 143.361L76.761 152.096C77.0313 148.014 77.847 129.315 76.4907 123.067Z" fill="#EBEEF3"/>
	<path d="M29.4619 119.689C29.4619 121.313 28.0961 127.493 27.29 130.397" stroke="#303030" stroke-miterlimit="10" stroke-linecap="round"/>
	<path d="M76.4907 123.065C76.1674 120.509 74.2754 106.105 71.0562 98.5244" stroke="#303030" stroke-miterlimit="10" stroke-linecap="round"/>
	<path d="M76.4907 123.067L89.9034 119.613C91.192 121.806 97.4664 143.361 97.4664 143.361L76.761 152.096C77.0313 148.014 77.847 129.315 76.4907 123.067Z" fill="#EBEEF3"/>
	<path d="M184.342 200.949C184.642 201.432 188.638 206.341 190.052 206.394C191.466 206.448 200.052 200.625 199.676 199.374C199.299 198.123 193.913 198.939 192.986 198.499C192.06 198.06 189.989 195.992 189.651 195.074" fill="#303030"/>
	<path d="M163.227 237.366C163.126 237.902 162.58 244.227 163.56 245.251C164.54 246.275 174.757 248.053 175.351 246.889C175.945 245.724 171.49 242.569 171.147 241.613C170.805 240.656 170.732 237.747 171.147 236.839" fill="#303030"/>
	<path d="M147.208 144.713H101.757L112.578 116.008H158.029L147.208 144.713Z" fill="#99ABC5"/>
	<path d="M109.335 143.63H63.8843V144.713H109.335V143.63Z" fill="#99ABC5"/>
	<path d="M27.2901 130.396C26.4165 133.663 22.1741 147.675 23.902 150.09C25.6298 152.506 68.9037 147.032 80.4823 143.423C83.4313 142.456 85.6176 139.925 86.9256 139.596C88.6051 139.311 90.3304 139.658 91.7701 140.57C93.2098 141.481 94.2622 142.893 94.7251 144.534C90.1014 146.776 23.3421 180.897 1.70999 165.711C-2.378 162.778 4.79409 127.024 5.12229 125.222C8.7759 125.661 27.2901 130.396 27.2901 130.396Z" fill="#EBEEF3"/>
	<path d="M77.1084 144.293C78.4115 143.984 79.5506 143.679 80.4869 143.39C83.4359 142.423 85.6222 139.891 86.9302 139.563C88.6097 139.278 90.335 139.625 91.7747 140.536C93.2144 141.448 94.2668 142.86 94.7297 144.501" stroke="#303030" stroke-miterlimit="10" stroke-linecap="round"/>
</svg>
