<?xml version="1.0" standalone="no"?>
<!DOCTYPE svg PUBLIC "-//W3C//DTD SVG 20010904//EN"
 "http://www.w3.org/TR/2001/REC-SVG-20010904/DTD/svg10.dtd">
<svg version="1.0" xmlns="http://www.w3.org/2000/svg"
 width="260.000000pt" height="260.000000pt" viewBox="0 0 260.000000 260.000000"
 preserveAspectRatio="xMidYMid meet">
<metadata>
Created by potrace 1.14, written by Peter Selinger 2001-2017
</metadata>
<g transform="translate(0.000000,260.000000) scale(0.100000,-0.100000)"
fill="#000000" stroke="none">
<path d="M423 2586 c-201 -49 -376 -232 -412 -431 -8 -40 -11 -327 -11 -875
l1 -815 27 -80 c15 -45 42 -104 60 -133 47 -71 140 -155 214 -191 128 -62 102
-61 997 -61 797 0 817 1 893 21 161 44 294 157 360 306 48 108 48 106 45 998
l-2 840 -23 62 c-22 59 -78 152 -119 199 -27 31 -110 92 -156 116 -23 11 -70
29 -106 39 -62 17 -119 18 -891 18 -629 -1 -837 -4 -877 -13z m1783 -112 c146
-60 257 -190 284 -333 15 -78 14 -1613 -1 -1683 -33 -154 -145 -280 -296 -335
-44 -17 -111 -18 -883 -18 -459 0 -850 3 -868 8 -107 25 -242 131 -289 227
-53 107 -53 103 -53 965 1 887 -1 866 66 977 40 66 111 133 177 167 97 50 95
50 982 48 818 -2 831 -3 881 -23z"/>
<path d="M1399 1900 c0 -475 -1 -488 -26 -537 -49 -94 -223 -103 -276 -14 -9
15 -22 58 -29 95 l-13 67 -50 -6 c-88 -11 -86 -9 -80 -73 8 -90 33 -151 80
-197 125 -125 389 -108 485 32 54 79 55 82 58 583 l3 466 -75 -1 -76 0 -1
-415z"/>
<path d="M1806 1154 c-126 -40 -195 -121 -201 -238 -4 -92 51 -174 148 -219
29 -14 108 -39 177 -56 69 -18 144 -39 168 -48 133 -49 141 -199 15 -264 -42
-21 -61 -24 -148 -24 -83 1 -108 5 -146 23 -63 31 -98 71 -120 134 -19 57 -12
54 -100 49 -31 -1 -32 -1 -26 -47 8 -71 54 -152 112 -196 77 -58 146 -78 275
-80 182 -2 306 70 353 207 33 94 -4 210 -86 271 -41 31 -160 77 -228 88 -45 7
-155 40 -201 59 -99 42 -94 173 9 223 49 24 191 29 248 9 49 -17 100 -74 112
-123 l9 -37 59 0 60 0 -3 39 c-8 105 -90 192 -217 230 -60 19 -210 18 -269 0z"/>
</g>
</svg>
